<svg width="1440" height="820" viewBox="0 0 1440 820" fill="none" xmlns="http://www.w3.org/2000/svg">
  <rect width="1440" height="820" fill="#08111f"/>
  <rect x="0" y="0" width="1440" height="58" fill="#0e1a2c"/>
  <text x="32" y="37" fill="#f8fafc" font-family="Segoe UI, Arial" font-size="22" font-weight="700">VulnScope</text>
  <text x="178" y="36" fill="#93c5fd" font-family="Segoe UI, Arial" font-size="15">Dashboard</text>
  <text x="276" y="36" fill="#cbd5e1" font-family="Segoe UI, Arial" font-size="15">Scans</text>
  <text x="350" y="36" fill="#cbd5e1" font-family="Segoe UI, Arial" font-size="15">Vulnerabilities</text>
  <text x="1280" y="36" fill="#bfdbfe" font-family="Segoe UI, Arial" font-size="14">Analyst Demo</text>
  <text x="155" y="116" fill="#f8fafc" font-family="Segoe UI, Arial" font-size="34" font-weight="800">Vulnerability Overview</text>
  <text x="155" y="146" fill="#93c5fd" font-family="Segoe UI, Arial" font-size="16">Authorized asset scanning with risk scoring, CVE mapping and report exports.</text>
  <g font-family="Segoe UI, Arial">
    <rect x="155" y="185" width="250" height="105" rx="14" fill="#101c2e" stroke="#263a57"/>
    <text x="186" y="228" fill="#38bdf8" font-size="18">Scans completed</text><text x="186" y="264" fill="#fff" font-size="34" font-weight="800">18</text>
    <rect x="425" y="185" width="250" height="105" rx="14" fill="#101c2e" stroke="#263a57"/>
    <text x="456" y="228" fill="#f59e0b" font-size="18">High risk findings</text><text x="456" y="264" fill="#fff" font-size="34" font-weight="800">7</text>
    <rect x="695" y="185" width="250" height="105" rx="14" fill="#101c2e" stroke="#263a57"/>
    <text x="726" y="228" fill="#60a5fa" font-size="18">Open services</text><text x="726" y="264" fill="#fff" font-size="34" font-weight="800">42</text>
    <rect x="965" y="185" width="250" height="105" rx="14" fill="#101c2e" stroke="#263a57"/>
    <text x="996" y="228" fill="#ef4444" font-size="18">Critical CVEs</text><text x="996" y="264" fill="#fff" font-size="34" font-weight="800">2</text>
  </g>
  <rect x="155" y="325" width="590" height="320" rx="16" fill="#101c2e" stroke="#263a57"/>
  <text x="185" y="365" fill="#f8fafc" font-family="Segoe UI, Arial" font-size="21" font-weight="700">Risk by severity</text>
  <rect x="210" y="575" width="75" height="28" rx="8" fill="#16a34a"/><rect x="315" y="515" width="75" height="88" rx="8" fill="#eab308"/><rect x="420" y="455" width="75" height="148" rx="8" fill="#f97316"/><rect x="525" y="395" width="75" height="208" rx="8" fill="#dc2626"/>
  <text x="222" y="632" fill="#cbd5e1" font-family="Segoe UI, Arial" font-size="14">LOW</text><text x="322" y="632" fill="#cbd5e1" font-family="Segoe UI, Arial" font-size="14">MED</text><text x="428" y="632" fill="#cbd5e1" font-family="Segoe UI, Arial" font-size="14">HIGH</text><text x="528" y="632" fill="#cbd5e1" font-family="Segoe UI, Arial" font-size="14">CRIT</text>
  <rect x="775" y="325" width="530" height="320" rx="16" fill="#101c2e" stroke="#263a57"/>
  <text x="805" y="365" fill="#f8fafc" font-family="Segoe UI, Arial" font-size="21" font-weight="700">Latest scans</text>
  <g font-family="Segoe UI, Arial" font-size="15">
    <text x="805" y="420" fill="#93c5fd">Target</text><text x="1000" y="420" fill="#93c5fd">Risk</text><text x="1115" y="420" fill="#93c5fd">Status</text>
    <line x1="805" y1="438" x2="1260" y2="438" stroke="#263a57"/>
    <text x="805" y="478" fill="#f8fafc">203.0.113.24</text><text x="1000" y="478" fill="#ef4444">91</text><text x="1115" y="478" fill="#22c55e">completed</text>
    <text x="805" y="528" fill="#f8fafc">demo-api.example</text><text x="1000" y="528" fill="#f59e0b">63</text><text x="1115" y="528" fill="#22c55e">completed</text>
    <text x="805" y="578" fill="#f8fafc">198.51.100.18</text><text x="1000" y="578" fill="#38bdf8">28</text><text x="1115" y="578" fill="#60a5fa">queued</text>
  </g>
</svg>
